<svg width="2185" height="2185" viewBox="0 0 2185 2185" fill="none" xmlns="http://www.w3.org/2000/svg">
<mask id="mask0_690_1026" style="mask-type:luminance" maskUnits="userSpaceOnUse" x="1123" y="74" width="389" height="645">
<path d="M1123.78 74H1511.01V718.158H1123.78V74Z" fill="white"/>
</mask>
<g mask="url(#mask0_690_1026)">
<path d="M1504.8 394.957C1504.8 571.528 1420.96 714.689 1317.55 714.689C1214.12 714.689 1130.27 571.528 1130.27 394.957C1130.27 218.36 1214.12 75.2256 1317.55 75.2256C1420.96 75.2256 1504.8 218.36 1504.8 394.957Z" fill="#FEF1D6"/>
</g>
<path d="M1461.82 388.855C1461.82 526.356 1396.54 637.828 1316.01 637.828C1235.48 637.828 1170.2 526.356 1170.2 388.855C1170.2 251.354 1235.48 139.882 1316.01 139.882C1396.54 139.882 1461.82 251.354 1461.82 388.855Z" fill="#3D8AE2"/>
<path d="M1421.29 387.264C1421.29 488.303 1373.33 570.199 1314.16 570.199C1254.98 570.199 1207.02 488.303 1207.02 387.264C1207.02 286.251 1254.98 204.355 1314.16 204.355C1373.33 204.355 1421.29 286.251 1421.29 387.264Z" fill="#FEF1D6"/>
<path d="M1387.7 381.135C1387.7 453.276 1353.43 511.776 1311.19 511.776C1268.91 511.776 1234.67 453.276 1234.67 381.135C1234.67 308.967 1268.91 250.467 1311.19 250.467C1353.43 250.467 1387.7 308.967 1387.7 381.135Z" fill="#3D8AE2"/>
<path d="M1360.53 381.135C1360.53 427.821 1337.84 465.665 1309.86 465.665C1281.9 465.665 1259.21 427.821 1259.21 381.135C1259.21 334.423 1281.9 296.579 1309.86 296.579C1337.84 296.579 1360.53 334.423 1360.53 381.135Z" fill="#FEF1D6"/>
<path d="M1335.96 383.69C1335.96 411.989 1322.22 434.914 1305.27 434.914C1288.31 434.914 1274.57 411.989 1274.57 383.69C1274.57 355.366 1288.31 332.44 1305.27 332.44C1322.22 332.44 1335.96 355.366 1335.96 383.69Z" fill="#3D8AE2"/>
<path d="M475.255 526.93C468.422 510.159 473.221 490.807 485.035 477.584C491.164 470.75 498.779 466.89 507.255 463.943C512.653 462.118 515.131 459.379 518.443 454.919C521.312 451.085 524.468 447.747 528.51 445.165C545.175 434.471 566.951 440.287 578.244 455.806C584.294 464.152 586.511 473.802 585.755 483.296C595.847 480.609 607.088 479.618 619.58 481.418C682.875 490.651 715.11 574.815 673.643 603.609C632.203 632.455 551.616 662.449 551.616 662.449C548.148 661.249 514.766 657.832 502.143 612.842C495.597 589.656 501.361 569.521 508.402 555.463C493.798 551.785 480.993 540.988 475.255 526.93ZM749.639 1142.03C721.995 1074.4 712.789 1046.73 712.789 1046.73L525.537 1052.89C507.125 1068.25 482.505 1175.39 479.48 1326.51C476.429 1480.23 482.558 1965.97 482.558 1965.97L642.191 1962.89L651.397 1375.7L728.15 1972.13C728.15 1972.13 863.216 1972.13 857.087 1959.84C850.932 1947.53 774.676 1203.32 749.639 1142.03ZM1316.56 405.99C1315.72 399.94 1310.14 395.74 1304.09 396.601L1127.04 421.796L1097.85 402.861L992.832 402.313L1052.01 433.115C1047.91 435.202 1045.36 439.688 1046.03 444.487C1046.53 448.086 1048.72 450.981 1051.67 452.598L1005.48 498.266L1107.14 471.846L1130.4 443.652L1307.2 418.483C1313.22 417.649 1317.42 412.041 1316.56 405.99Z" fill="black"/>
<path d="M670.201 566.73C677.112 584.022 669.053 616.31 669.053 616.31C669.053 616.31 667.514 692.39 636.062 690.095C635.019 690.016 634.028 689.886 633.011 689.808L626.074 733.129C626.074 733.129 608.418 741.605 586.928 739.284C565.439 736.989 532.448 720.845 540.898 713.151C546.974 707.621 553.468 666.934 557.458 643.226C548.93 637.854 537.586 627.134 537.064 612.477C536.282 590.959 552.216 582.17 563.9 592.446C605.732 599.019 642.582 528.703 642.582 528.703C642.582 528.703 663.289 549.438 670.201 566.73ZM457.991 1095.92C454.939 1101.29 434.988 1129.72 435.745 1132.04C436.501 1134.34 450.323 1194.3 457.234 1205.07C464.145 1215.82 484.096 1241.95 484.096 1241.95L488.008 1205.12L481.019 1160.47C481.019 1160.47 490.225 1155.1 496.38 1166.63C502.508 1178.16 507.125 1183.53 514.792 1181.99C522.459 1180.45 515.574 1150.48 509.42 1135.12C503.291 1119.73 457.991 1095.92 457.991 1095.92ZM950.713 750.056C948.94 751.803 938.899 755.142 926.824 758.767C932.64 751.49 939.942 740.354 943.046 736.207C947.636 730.077 941.507 714.689 927.685 730.077C913.863 745.439 876.803 754.203 872.422 774.651C863.216 817.685 844.804 840.741 844.804 840.741L884.706 888.418L901.579 820.762C901.579 820.762 967.587 793.09 975.254 780.78C982.948 768.495 990.615 705.457 989.076 693.172C987.538 680.888 955.303 745.439 950.713 750.056ZM1165.77 1120.52C1149.94 1105.15 1142.89 1120.52 1148.19 1126.67C1151.73 1130.82 1160.08 1141.93 1166.76 1149.21C1152.91 1145.61 1141.41 1142.27 1139.37 1140.49C1134.11 1135.88 1097.18 1071.33 1095.4 1083.61C1093.66 1095.92 1102.44 1158.93 1111.23 1171.24C1120.05 1183.55 1176.95 1218.89 1193.23 1223.51C1209.48 1228.13 1220.85 1269.62 1220.85 1269.62L1260.75 1231.21C1260.75 1231.21 1239.65 1208.15 1229.09 1165.09C1224.08 1144.67 1181.6 1135.9 1165.77 1120.52ZM1527.83 869.952C1527.23 870.056 1526.97 870.187 1526.94 870.369C1528.92 869.795 1529.47 869.665 1527.83 869.952ZM1615.3 909.909C1585.13 885.444 1526.63 873.108 1526.94 870.369C1517.76 873.003 1477.08 885.21 1469.49 912.986C1469.49 969.87 1441.87 957.194 1440.33 967.94C1438.79 978.711 1462.21 1046.34 1462.21 1046.34L1505.95 1045.19L1511.71 1067.1C1511.71 1067.1 1613.76 1054.43 1612.22 1046.73C1610.68 1039.04 1647.54 936.042 1615.3 909.909Z" fill="#EFB681"/>
<mask id="mask1_690_1026" style="mask-type:luminance" maskUnits="userSpaceOnUse" x="303" y="684" width="1556" height="1428">
<path d="M303 684.774H1858.18V2112H303V684.774Z" fill="white"/>
</mask>
<g mask="url(#mask1_690_1026)">
<path d="M892.374 872.247C892.374 872.247 903.327 885.496 903.875 898.771C905.023 926.444 853.228 1003.67 837.111 1038.28C820.994 1072.86 815.23 1060.16 784.143 1057.87C753.083 1055.57 727.759 978.32 725.438 982.936C723.143 987.552 720.848 1045.19 713.937 1054.43C707.026 1063.63 511.324 1065.95 511.324 1065.95L444.56 925.296L416.942 985.231C416.942 985.231 446.882 1011.76 451.472 1023.28C456.088 1034.81 453.897 1052.86 456.088 1074.01C457.496 1087.6 466.441 1098.22 466.441 1098.22L434.207 1133.97C434.207 1133.97 428.313 1124.32 411.179 1120.12C394.07 1115.95 365.722 1117.26 350.178 1106.3C319.091 1084.39 302.974 1045.19 305.269 1007.14C307.59 969.113 376.649 822.666 387.003 789.256C397.382 755.819 482.558 732.763 504.439 729.295C526.294 725.826 526.294 701.622 540.116 691.242C553.938 680.861 628.761 694.711 639.115 699.327C649.468 703.944 637.967 716.619 641.41 717.767C644.878 718.914 718.553 750.055 738.113 763.879C757.699 777.728 786.465 881.479 787.612 884.948C787.612 884.948 792.228 839.984 833.669 843.427C839.876 843.948 849.786 824.987 849.786 824.987L900.433 852.66L892.374 872.247ZM1288.39 1706.96V2110.49H1852.44V1706.96H1288.39Z" fill="#3D8AE2"/>
</g>
<path d="M696.671 2102.4L523.998 2098.96L527.467 2009.03V1955.98L597.673 1952.54C597.673 1952.54 612.643 2011.33 629.907 2025.17C647.172 2039 648.32 2029.76 673.643 2048.23C698.992 2066.67 696.671 2102.4 696.671 2102.4ZM898.137 2042.47C872.813 2024 871.666 2033.23 854.401 2019.41C837.11 2005.56 822.167 1946.77 822.167 1946.77L751.934 1950.22V2003.27L748.465 2096.64L921.165 2102.4C921.165 2102.4 923.46 2060.91 898.137 2042.47ZM1659.19 929.47C1644.38 894.442 1615.38 865.596 1578.08 855.79C1566.04 852.608 1535.65 846.635 1510.41 859.337C1509.26 858.554 1507.77 858.085 1505.92 858.189C1485.66 859.206 1468.19 870.917 1455.67 887.009C1427.66 922.975 1465.84 952.838 1466.86 946.292C1468.84 933.799 1471.29 917.837 1478.96 906.57C1479.48 917.081 1483.89 927.513 1490.8 936.042C1502.82 950.882 1525.51 955.264 1525.51 955.264C1525.51 955.264 1553.15 925.27 1562.36 963.323C1569.22 991.674 1535.89 1002.52 1535.89 1002.52C1535.89 1002.52 1514.01 1018.64 1521.1 1042.82C1522.17 1046.34 1525.09 1048.17 1528.61 1048.53C1569.79 1052.52 1610.97 1056.51 1652.15 1060.55C1655.67 1060.87 1658.57 1057.87 1659.61 1054.87C1673.8 1014.49 1676.09 969.374 1659.19 929.47Z" fill="black"/>
<mask id="mask2_690_1026" style="mask-type:luminance" maskUnits="userSpaceOnUse" x="896" y="1045" width="929" height="1067">
<path d="M896.78 1045.32H1824.8V2112H896.78V1045.32Z" fill="white"/>
</mask>
<g mask="url(#mask2_690_1026)">
<path d="M1240.8 2007.49L1246.95 2105.87L1052.01 2107.41C1052.01 2107.41 1052.11 2106.94 1052.32 2106.18L896.964 2107.41C896.964 2107.41 903.119 2081.28 919.992 2076.66C936.892 2072.04 1007.49 2013.62 1012.08 2009.03C1012.08 2009.03 1085.78 2018.24 1090.37 2018.24C1092.82 2018.24 1093.11 2042.81 1092.82 2065.94C1119.53 2046.22 1162.01 2006.45 1165.58 2002.88L1240.8 2007.49ZM1771.86 1380.31C1763.54 1339.81 1727.78 1234.47 1703.01 1185.95C1678.23 1137.42 1621.46 1105.15 1621.46 1105.15L1598.43 1051.35L1506.34 1066.71C1506.34 1066.71 1501.72 1095.92 1501.72 1102.08C1501.72 1102.08 1461.82 1114.36 1428.05 1148.19C1399.83 1176.46 1379.12 1276.61 1373.07 1308.77L1271.49 1214.28L1187.07 1298.83C1187.07 1298.83 1339.04 1478.69 1372.81 1486.36C1398.81 1492.28 1415.71 1493.61 1427.71 1487.61L1420.38 1544.78L1639.87 1567.84C1639.87 1567.84 1651.71 1486.99 1671.82 1406.99C1688.48 1474.18 1727.68 1632.18 1728.9 1637.01C1730.42 1643.16 1820.99 1618.57 1820.99 1618.57C1820.99 1618.57 1782.6 1432.55 1771.86 1380.31Z" fill="#FEF1D6"/>
</g>
<path d="M1601.5 1707.74C1570.89 1735.41 1322.14 1729.26 1292.98 1729.26C1291.97 1729.26 1290.74 1729.65 1289.38 1730.33C1280.18 1802.05 1246.93 2009 1246.93 2009L1141.02 2013.62C1141.02 2013.62 1145.35 1973.9 1150.51 1928.78C1120.6 1978.75 1098.06 2019.05 1098.06 2021.32C1098.06 2027.47 970.664 2002.88 970.664 2002.88C970.664 2002.88 1157.92 1652.39 1180.94 1624.72C1203.97 1597.05 1415.79 1534.01 1423.46 1532.47L1641.41 1550.94C1641.41 1550.94 1664.43 1650.86 1601.5 1707.74Z" fill="black"/>
<path d="M1854.74 1772.29C1842.48 1776.91 1854.74 1730.79 1842.48 1721.56C1830.2 1712.33 1820.99 1693.89 1810.25 1687.73C1799.5 1681.6 1820.99 1718.48 1810.25 1723.1C1799.5 1727.72 1797.96 1712.33 1774.93 1690.81C1751.91 1669.29 1754.98 1644.7 1758.06 1629.34C1758.06 1629.34 1794.88 1606.26 1799.5 1604.74C1804.09 1603.2 1805.63 1618.57 1807.17 1623.18C1808.71 1627.8 1868.56 1680.07 1879.3 1706.2C1890.05 1732.33 1867.02 1767.67 1854.74 1772.29Z" fill="#EFB681"/>
<path d="M1025.9 118.26V134.405C1025.9 152.218 1011.48 166.667 993.693 166.667H848.638C830.825 166.667 816.403 152.218 816.403 134.405V118.26C816.403 100.421 830.825 85.9717 848.638 85.9717H993.693C1011.48 85.9717 1025.9 100.421 1025.9 118.26ZM1764.97 314.262H1619.92C1602.13 314.262 1587.68 328.711 1587.68 346.525V362.669C1587.68 380.509 1602.13 394.958 1619.92 394.958H1764.97C1782.76 394.958 1797.21 380.509 1797.21 362.669V346.525C1797.21 328.711 1782.76 314.262 1764.97 314.262ZM1253.84 874.568H1108.81C1091 874.568 1076.57 889.018 1076.57 906.857V922.975C1076.57 940.815 1091 955.264 1108.81 955.264H1253.84C1271.65 955.264 1286.07 940.815 1286.07 922.975V906.857C1286.07 889.018 1271.65 874.568 1253.84 874.568Z" fill="#3D8AE2"/>
<path d="M1244.37 705.353C1247.42 708.378 1247.42 713.307 1244.37 716.359L1182.2 778.641V851.513C1182.2 855.816 1178.7 859.285 1174.42 859.285C1170.12 859.285 1166.65 855.816 1166.65 851.513V775.407C1166.65 773.347 1167.46 771.365 1168.92 769.904L1233.39 705.353C1236.42 702.301 1241.34 702.301 1244.37 705.353ZM1685.56 408.755C1681.75 406.825 1677.06 408.364 1675.13 412.224L1640.34 481.705H1527.83C1523.53 481.705 1520.06 485.174 1520.06 489.477C1520.06 493.78 1523.53 497.275 1527.83 497.275H1645.14C1648.06 497.275 1650.74 495.606 1652.07 492.972L1689.03 419.188C1690.96 415.354 1689.39 410.685 1685.56 408.755ZM1058.24 281.478L928.545 239.409V187.429C928.545 183.125 925.077 179.656 920.774 179.656C916.497 179.656 913.002 183.125 913.002 187.429V245.068C913.002 248.459 915.193 251.432 918.4 252.475L1053.47 296.292C1054.25 296.553 1055.06 296.683 1055.84 296.683C1059.13 296.683 1062.18 294.571 1063.25 291.285C1064.55 287.19 1062.31 282.808 1058.24 281.478Z" fill="black"/>
</svg>
