<svg width="1600" height="1187" fill="none" xmlns="http://www.w3.org/2000/svg"><path d="M724.15 336.939s21.25-24.22 43.91-2.27c22.66 21.95-8.951 33.15-8.951 33.15l-40.839-1.12 8-26-2.12-3.76Z" fill="#F8CCAB"/><path d="M449.922 414.859c3.34 5.54 11.95 16.64 17.64 23.83a6.34 6.34 0 0 1 1.149 5.598 6.334 6.334 0 0 1-3.829 4.242l-13.56 5.24-1.4-38.91Z" fill="#F3AF84" stroke="#272B36" stroke-width="2.23" stroke-miterlimit="10"/><path d="M450.223 357.159s36.7 139.89-30.37 179.37c0 0-.32 24.93-9.64 40.59-9.32 15.66-124.56-19-124.56-19l-13.43-66.1-9-139.15 119.78-15.58 67.22 19.87Z" fill="#F8CCAB" stroke="#272B36" stroke-width="2.23" stroke-miterlimit="10"/><path d="M421.269 450.196c6.607-1.073 11.094-7.298 10.022-13.906-1.073-6.607-7.299-11.093-13.906-10.021-6.607 1.073-11.094 7.298-10.021 13.905 1.072 6.608 7.298 11.094 13.905 10.022Z" fill="#F3AF84"/><path d="M457.63 468.19s-12.67-.2-22.36-5.6Z" fill="#fff"/><path d="M457.63 468.19s-12.67-.2-22.36-5.6" stroke="#272B36" stroke-width="2.23" stroke-miterlimit="10"/><path d="M441.351 413.121a1.66 1.66 0 1 0 .001-3.32 1.66 1.66 0 0 0-.001 3.32Z" fill="#272B36"/><path d="M419.849 536.531a29.308 29.308 0 0 1-15.74 2.94Z" fill="#fff"/><path d="M419.849 536.531a29.308 29.308 0 0 1-15.74 2.94" stroke="#272B36" stroke-width="2.23" stroke-miterlimit="10"/><path d="m807.371 354.118 29.63 2.78a11.764 11.764 0 0 0 11.6-6.11 10.344 10.344 0 0 0 .38-8.89 13.59 13.59 0 0 0-13.3-8.33l-24.1 1.12a97.644 97.644 0 0 1-4.21 19.43Z" fill="#FA3369"/><path d="m729.682 472.079 33.32 51.32 43.37-33.11s81-60.35 34-94.29c0 0 16.22-30.23-12.76-41.25a44.217 44.217 0 0 0-20.24-.76s.39-1 1-2.76a73.941 73.941 0 0 0 3.28-16.49c1.22-11.85-.37-25.09-11.68-30.4-14.94-7-26.93 15.49-37 32.65a113.358 113.358 0 0 1-8 12.27l-31.75-3c-7.14 19.27-25.93 81.38 6.46 125.82Z" fill="#F8CCAB"/><path d="M849.832 346.609h61.86" stroke="#272B36" stroke-width="2.23" stroke-miterlimit="10"/><path d="m732.169 338.37-34.87-35.64a7.367 7.367 0 0 0-7.663-1.814 7.373 7.373 0 0 0-4.927 6.144c-1.2 11.23-.72 26 8.3 33.12l36.67 2.89 2.49-4.7Z" fill="#64B1E0"/><path d="m732.169 344.491-34.87 35.63a7.367 7.367 0 0 1-7.663 1.814 7.365 7.365 0 0 1-4.927-6.144c-1.2-11.23-.72-26 8.3-33.12l36.67-2.89 2.49 4.71Z" fill="#64B1E0"/><path d="M693.001 340.181a1.615 1.615 0 0 0-1.645 1.575 1.595 1.595 0 0 0 .447 1.149 1.604 1.604 0 0 0 1.128.496l30.22 2.83 22.85 2.14 8.93.84a113.41 113.41 0 0 0 8-12.27l-69.93 3.24Z" fill="#FA3369"/><path d="M754.91 349.211a95.967 95.967 0 0 1-6.57 7.74Z" fill="#fff"/><path d="M754.91 349.211a95.967 95.967 0 0 1-6.57 7.74M485.283 346.291c32-59.08-49.32-108.12-128.95-41.64 0 0-15.69-21.24-34.79-.88" stroke="#272B36" stroke-width="2.23" stroke-miterlimit="10"/><path d="M1355.67 867.111c5.59 0 10.12-4.531 10.12-10.12 0-5.589-4.53-10.12-10.12-10.12-5.59 0-10.12 4.531-10.12 10.12 0 5.589 4.53 10.12 10.12 10.12Z" fill="#33918B"/><path d="M1544.4 362.011c2.79 0 5.06-2.266 5.06-5.06 0-2.795-2.27-5.06-5.06-5.06a5.063 5.063 0 0 0-5.06 5.06c0 2.794 2.27 5.06 5.06 5.06ZM97.001 326.511a5.06 5.06 0 1 0 0-10.12 5.06 5.06 0 0 0 0 10.12Z" fill="#F7BF5C"/><path d="M982.04 603.822a7.86 7.86 0 1 0 0-15.72 7.86 7.86 0 0 0 0 15.72Z" fill="#EF8B63"/><path d="M575.52 531.251a3.93 3.93 0 1 0-.001-7.861 3.93 3.93 0 0 0 .001 7.861Z" fill="#64B1E0"/><path d="M896.59 265.52a3.93 3.93 0 1 0 .001-7.859 3.93 3.93 0 0 0-.001 7.859Z" fill="#FA3369"/><path d="M797.633 798.569c-2.41 10.13-6.62 20.56-10 32 21.31 8 98.34 42.37 130.34 88.17-16.6-48.21-34.5-87.4-51-118.32h-.06c-19-24-63.7-38.62-75.36-40.86.31 1.45.7 2.91 1.14 4.4 7.66 25.87 4.94 34.61 4.94 34.61Z" fill="#33918B"/><path d="M865.113 797.029c-26.64-49.24-49.35-76.74-56.61-85.92-14.14 7.95-22 26.37-17 48.45 11.66 2.24 56.37 16.87 75.36 40.86h.06c-.6-1.13-1.2-2.28-1.81-3.39Z" fill="#33918B"/><path d="M812.1 709.35a27.176 27.176 0 0 0-3.6 1.76c7.26 9.13 30 36.68 56.61 85.92-11.93-27.81-16.93-64.52-16.52-85.44-12.97-6.65-25.95-6.55-36.49-2.24Z" fill="#33918B"/><path d="M848.59 711.59c-.41 20.92 4.59 57.63 16.52 85.44.61 1.11 1.21 2.23 1.82 3.36 16.51 30.92 34.41 70.11 51 118.32 0 0-30.19-95.42-19.93-135.9l.29-.16c-7.08-12.36-10.88-29.36-25.29-49.12-7.66-10.58-16-17.67-24.41-21.94Z" fill="#33918B"/><path d="M787.601 830.539c21.31 8 98.34 42.37 130.34 88.17 6.92 20.08 13.61 41.75 19.89 65h-63.62c-.68-.8-1.37-1.6-2.08-2.41-32.12-36.78-68.18-27.34-86.3-90.8-6.83-23.73-3.37-42.94 1.77-59.96Z" fill="#33918B"/><path d="M937.852 983.76c-6.28-23.28-13-45-19.89-65 0 0-30.22-95.4-20-135.92l.29-.16a37.008 37.008 0 0 0 9.75 11.61c51.82 39.16 50.25 58.46 49.13 78-1.12 19.54 5.41 43.57 15.93 70.59 6.08 15.57 6.44 29.47 4.4 40.91l-39.61-.03Z" fill="#33918B"/><path d="m865.599 798.74.23-.07a1.05 1.05 0 0 0 .54-1.37c-11.58-26.59-17.19-63.23-16.75-85.69a1.038 1.038 0 0 0-1.775-.735 1.04 1.04 0 0 0-.305.735c-.44 22.68 5.23 59.7 16.92 86.56a1.055 1.055 0 0 0 1.14.57Z" fill="#272B36"/><path d="M867.06 801.43a1.11 1.11 0 0 0 .46-.2.987.987 0 0 0 .405-.693 1.006 1.006 0 0 0-.235-.767c-18.79-23.73-62.89-38.72-76-41.22a1.017 1.017 0 0 0-1.195.805 1.021 1.021 0 0 0 .805 1.195c12.89 2.47 56.31 17.21 74.74 40.48a1.002 1.002 0 0 0 1.02.4ZM918.142 919.75h.13a1.003 1.003 0 0 0 .68-1.301c-.3-1-30-95.569-20-135.349a1.033 1.033 0 0 0-2-.511c-4.28 17-2.2 45.111 6.16 83.641 6.22 28.62 13.78 52.609 13.86 52.849a1.003 1.003 0 0 0 1.17.671Z" fill="#272B36"/><path d="M918.152 919.751c.143-.031.278-.089.4-.17a.993.993 0 0 0 .449-.668 1 1 0 0 0-.189-.782c-13.81-19.77-37.2-39.48-69.51-58.57a421.474 421.474 0 0 0-61.35-30 .992.992 0 0 0-.795.012.991.991 0 0 0-.535.588.996.996 0 0 0 .254 1.135.999.999 0 0 0 .356.205c25.82 9.67 99.49 44.31 129.88 87.81a1 1 0 0 0 1.04.44Z" fill="#272B36"/><path d="M807.853 710.288a.994.994 0 0 1 .767-.234c.137.016.27.06.389.129.119.07.223.164.304.275l1.32 1.67c66.64 83.48 105.82 188.31 128.28 271.62h-2.15c-22.43-83-61.47-187.3-127.75-270.33l-1.33-1.67a1.003 1.003 0 0 1-.105-1.156c.07-.119.163-.222.275-.304Z" fill="#272B36"/><path d="M1051.14 850.459c1.78 7.5 4.89 15.22 7.42 23.67-15.78 5.92-72.817 31.37-96.517 65.29a602.338 602.338 0 0 1 37.77-87.62h.05c14.057-17.77 47.167-28.61 55.797-30.26-.22 1.07-.52 2.16-.84 3.25-5.7 19.19-3.68 25.67-3.68 25.67Z" fill="#64B1E0"/><path d="M1001.16 849.29c19.73-36.46 36.54-56.87 41.92-63.63 10.47 5.89 16.27 19.53 12.58 35.88-8.63 1.65-41.74 12.49-55.798 30.26h-.05c.448-.84.898-1.66 1.348-2.51Z" fill="#64B1E0"/><path d="M1040.42 784.389c.92.37 1.81.805 2.66 1.3-5.38 6.76-22.19 27.17-41.92 63.63 8.84-20.6 12.54-47.78 12.23-63.27 9.61-4.93 19.22-4.86 27.03-1.66Z" fill="#64B1E0"/><path d="M1013.39 786.051c.31 15.49-3.39 42.67-12.23 63.27-.45.82-.9 1.64-1.35 2.48a602.287 602.287 0 0 0-37.81 87.62s22.38-70.65 14.82-100.66l-.21-.11c5.2-9.13 8-21.78 18.66-36.38 5.73-7.81 11.92-13.06 18.12-16.22ZM997.82 983.758h-49.48c4.34-15.79 8.94-30.56 13.68-44.32 23.7-33.92 80.74-59.37 96.52-65.29 3.8 12.6 6.34 26.83 1.31 44.44-13.05 45.75-38.72 40.32-62.03 65.17Z" fill="#64B1E0"/><path d="M1000.8 850.58h-.17a.759.759 0 0 1-.4-.418.736.736 0 0 1 0-.582c8.57-19.69 12.73-46.83 12.4-63.46 0-.203.08-.399.22-.544a.784.784 0 0 1 .84-.185.771.771 0 0 1 .42.407.73.73 0 0 1 .06.292c.33 16.79-3.87 44.21-12.53 64.1a.779.779 0 0 1-.35.336.795.795 0 0 1-.49.054Z" fill="#272B36"/><path d="M999.72 852.579a.873.873 0 0 1-.34-.16.773.773 0 0 1-.13-1.08c13.92-17.57 46.58-28.67 56.26-30.52a.771.771 0 0 1 .86.618c.04.193 0 .394-.11.56a.755.755 0 0 1-.46.332c-9.54 1.82-41.69 12.74-55.34 30a.784.784 0 0 1-.74.25ZM961.89 940.191a.658.658 0 0 1-.3-.13.754.754 0 0 1-.313-.795.758.758 0 0 1 .123-.275c10.23-14.64 27.54-29.23 51.47-43.37a312.14 312.14 0 0 1 45.43-22.21.758.758 0 0 1 .59.016c.1.042.18.102.25.177.07.074.12.162.16.257.04.095.05.197.05.299 0 .102-.02.202-.07.295a.79.79 0 0 1-.17.247.776.776 0 0 1-.26.159c-19.13 7.16-73.68 32.81-96.18 65a.763.763 0 0 1-.341.282.76.76 0 0 1-.439.048Z" fill="#272B36"/><path d="M948.342 983.759h-30.92a56 56 0 0 1 3.79-26.47c7.79-20 12.62-37.79 11.79-52.27-.83-14.48-2-28.73 36.38-57.73a27.442 27.442 0 0 0 7.25-8.59l.21.11c7.56 29.98-14.84 100.63-14.84 100.63a745.53 745.53 0 0 0-13.66 44.32Z" fill="#64B1E0"/><path d="M947.551 983.76c16.8-61.06 45.63-136.76 93.999-197.31l1-1.23a.775.775 0 0 1 1.08-.13c.16.126.26.31.29.513a.773.773 0 0 1-.16.567l-1 1.24c-48.059 60.21-76.779 135.52-93.549 196.35h-1.66Z" fill="#272B36"/><path d="M961.892 940.19h-.09a.772.772 0 0 1-.467-.392.781.781 0 0 1-.043-.608c.23-.7 22.23-70.77 14.81-100.23a.767.767 0 0 1 .281-.802.768.768 0 0 1 .854-.04.773.773 0 0 1 .355.472c3.16 12.56 1.63 33.39-4.57 61.93-4.6 21.2-10.2 39-10.26 39.14a.77.77 0 0 1-.87.53Z" fill="#272B36"/><path d="M1403.85 734.79h59.58l-73.03-101.11h-59.57l73.02 101.11Z" fill="#EF8B63" stroke="#EF8B63" stroke-width="2.23" stroke-miterlimit="10"/><path d="M1131.27 734.79h-59.57l73.02-101.11h59.57l-73.02 101.11Z" fill="#EF8B63"/><path d="M1043.08 455.66c0 44.398 13.17 87.799 37.83 124.714a224.503 224.503 0 0 0 230.45 95.452 224.456 224.456 0 0 0 114.93-61.435 224.434 224.434 0 0 0 61.44-114.937 224.499 224.499 0 0 0-12.78-129.699 224.504 224.504 0 0 0-82.67-100.744 224.505 224.505 0 0 0-124.72-37.831 224.332 224.332 0 0 0-85.92 17.052 224.335 224.335 0 0 0-138.56 207.428Zm44.9 0a179.57 179.57 0 0 1 30.29-99.756 179.604 179.604 0 0 1 80.6-66.119 179.573 179.573 0 0 1 195.69 38.96 179.626 179.626 0 0 1 49.14 91.949 179.653 179.653 0 0 1-10.23 103.75 179.628 179.628 0 0 1-66.14 80.585 179.588 179.588 0 0 1-99.77 30.261c-23.59.01-46.95-4.629-68.74-13.654a179.333 179.333 0 0 1-58.27-38.939 179.355 179.355 0 0 1-38.92-58.289A179.398 179.398 0 0 1 1088 455.66h-.02Z" fill="#F7BF5C"/><path d="M1132.87 455.659a134.692 134.692 0 0 0 160.97 132.102 134.68 134.68 0 0 0 68.96-36.862 134.612 134.612 0 0 0 36.86-68.963 134.702 134.702 0 0 0-7.66-77.821 134.689 134.689 0 0 0-124.44-83.146 134.574 134.574 0 0 0-51.55 10.234 134.589 134.589 0 0 0-43.71 29.195 134.692 134.692 0 0 0-29.2 43.706 134.707 134.707 0 0 0-10.23 51.555Zm44.9 0a89.838 89.838 0 0 1 15.13-49.885 89.801 89.801 0 0 1 92.18-38.18 89.818 89.818 0 0 1 70.55 70.548 89.877 89.877 0 0 1-5.11 51.878 89.85 89.85 0 0 1-33.07 40.296 89.809 89.809 0 0 1-49.89 15.133 89.781 89.781 0 0 1-34.37-6.822 89.685 89.685 0 0 1-29.13-19.462 89.764 89.764 0 0 1-19.47-29.137 89.677 89.677 0 0 1-6.82-34.369Z" fill="#F7BF5C"/><path d="M1267.56 500.558c24.8 0 44.9-20.103 44.9-44.9 0-24.798-20.1-44.9-44.9-44.9-24.8 0-44.9 20.102-44.9 44.9 0 24.797 20.1 44.9 44.9 44.9Z" fill="#EF8B63"/><path d="M1230.7 677.128a224.696 224.696 0 0 0 240.44-127.135 224.701 224.701 0 0 0 20.86-94.335 223.695 223.695 0 0 0-24.72-102.58l-236.58 324.05ZM1223.72 465.392a45.04 45.04 0 0 1-.15-18.712 44.89 44.89 0 0 1 7.5-17.146 44.893 44.893 0 0 1 50.21-16.592 44.89 44.89 0 0 1 16.24 9.306 44.901 44.901 0 0 1 14.94 33.414 44.851 44.851 0 0 1-3.4 17.189 44.74 44.74 0 0 1-9.75 14.561" stroke="#272B36" stroke-width="2.23" stroke-miterlimit="10"/><path d="M1140.52 500.56a134.722 134.722 0 0 0 149.79 87.859 134.692 134.692 0 0 0 80.21-45.937 134.716 134.716 0 0 0 31.73-86.822c0-7.146-.56-14.281-1.68-21.34" stroke="#272B36" stroke-width="2.23" stroke-miterlimit="10"/><path d="M62.8 983.762s-21.65-449.47 255.901-449.47c7.9 0 46.88-6.77 126.61 35 103.19 54 230.85 12.74 281.88-92 .84-1.714 1.67-3.444 2.49-5.19 0 0 28.44 21.14 76.69 18.16 0 0 10 276.25-261.75 306.14 0 0 22.47 101 19.11 187.38l-500.93-.02Z" fill="#F7BF5C"/><path d="M342.051 902.772c3.42 11.57 6.75 23.44 9.93 35.43.76-.75 69.08-69.59 41.26-81.65-27.97-12.12-51.19 46.22-51.19 46.22Z" fill="#fff"/><path d="M342.051 902.771c-11.55-16.66-44.35-56.14-70.71-34.24-26.36 21.9 80.66 69.68 80.66 69.68-3.2-12-6.53-23.87-9.95-35.44ZM315 820.429c3.36 9.17 6.85 19.09 10.39 29.58 23-37.66 46.12-90 18-97.1-28.12-7.1-26.48 60.97-28.39 67.52Z" fill="#fff"/><path d="M244.001 798.099c-15.26 32.17 80.08 51.63 81.45 51.91-3.54-10.49-7-20.41-10.39-29.58-.06 0-55.74-54.74-71.06-22.33Z" fill="#fff"/><path d="M289.262 761.871s37.42 69.42 74.84 221.89" stroke="#fff" stroke-width="2.23" stroke-miterlimit="10"/><path d="M429.851 739.359a4.57 4.57 0 1 0 0-9.14 4.57 4.57 0 0 0 0 9.14ZM155.572 873.948a8.56 8.56 0 1 0 0-17.12 8.56 8.56 0 0 0 0 17.12ZM368.57 983.76c12.78-19.12 39.49-59.19 61.73-50.31 15.89 6.34 15.09 25.86-4.74 50.31h-56.99ZM276.082 983.76c-21.15-17.18-25.28-33.15-11.86-43.48 22.49-17.29 70 24.29 92.86 43.48h-81Z" fill="#fff"/><path d="M1527.62 983.758H20.531" stroke="#272B36" stroke-width="2.23" stroke-miterlimit="10"/><path d="M727.193 477.292c.84-1.714 1.67-3.444 2.49-5.19 0 0 28.44 21.14 76.69 18.16a281.25 281.25 0 0 1-1.67 34.82c-20.77 1-58.11-.59-94-19.73a207.523 207.523 0 0 0 16.49-28.06Z" fill="#EF8B63"/><path d="M123.691 660.482c37.61-71.38 98.06-126.19 195.01-126.19 7.9 0 46.88-6.77 126.61 35 103.19 54 230.85 12.74 281.88-92 .84-1.714 1.67-3.444 2.49-5.19 0 0 28.44 21.14 76.69 18.16 0 0 1.77 48.51-16.18 107.07" stroke="#272B36" stroke-width="2.23" stroke-miterlimit="10"/><path d="M343.573 371.41s109.74 33.93 141.71-25.12c31.97-59.05-49.28-108.16-128.95-41.68 0 0-15.69-21.24-34.79-.88 0 0-59.17-48.64-101.23 16.63 0 0-21 36.4 5.93 69.85 0 0-33.45 21.82-5.48 43.3 0 0-55.43 44.48-.31 96.2 55.12 51.72 75.26 5.92 75.26 5.92s42.92 6 25.94-44.57c0 0-25.58-3.52-20.62-18.55 4.96-15.03 20.51-6.32 20.51-6.32s43.02-44.1 22.03-94.78Z" fill="#64B1E0"/><path d="M226.243 390.211s-33.45 21.82-5.48 43.3c0 0-55.43 44.48-.31 96.2 55.12 51.72 75.26 5.92 75.26 5.92s42.92 6 25.94-44.57" stroke="#272B36" stroke-width="2.23" stroke-miterlimit="10"/></svg>